<?xml version="1.0" encoding="UTF-8" standalone="no"?>
<svg
   xmlns:dc="http://purl.org/dc/elements/1.1/"
   xmlns:cc="http://creativecommons.org/ns#"
   xmlns:rdf="http://www.w3.org/1999/02/22-rdf-syntax-ns#"
   xmlns:svg="http://www.w3.org/2000/svg"
   xmlns="http://www.w3.org/2000/svg"
   xmlns:sodipodi="http://sodipodi.sourceforge.net/DTD/sodipodi-0.dtd"
   xmlns:inkscape="http://www.inkscape.org/namespaces/inkscape"
   sodipodi:docname="blazor-adminlte.svg"
   inkscape:version="0.92.4 (5da689c313, 2019-01-14)"
   id="svg8"
   version="1.1"
   viewBox="0 0 73.616249 21.655787"
   height="21.655787mm"
   width="73.616249mm">
  <defs
     id="defs2" />
  <sodipodi:namedview
     inkscape:window-maximized="1"
     inkscape:window-y="-8"
     inkscape:window-x="-8"
     inkscape:window-height="1017"
     inkscape:window-width="2560"
     showgrid="false"
     inkscape:document-rotation="0"
     inkscape:current-layer="layer1"
     inkscape:document-units="mm"
     inkscape:cy="54.094759"
     inkscape:cx="154.30152"
     inkscape:zoom="1.4"
     inkscape:pageshadow="2"
     inkscape:pageopacity="0.0"
     borderopacity="1.0"
     bordercolor="#666666"
     pagecolor="#ffffff"
     id="base" />
  <metadata
     id="metadata5">
    <rdf:RDF>
      <cc:Work
         rdf:about="">
        <dc:format>image/svg+xml</dc:format>
        <dc:type
           rdf:resource="http://purl.org/dc/dcmitype/StillImage" />
        <dc:title></dc:title>
      </cc:Work>
    </rdf:RDF>
  </metadata>
  <g
     transform="translate(-56.657377,-25.91088)"
     id="layer1"
     inkscape:groupmode="layer"
     inkscape:label="Layer 1">
    <g
       aria-label="ADMINLTE"
       style="font-style:normal;font-variant:normal;font-weight:normal;font-stretch:normal;font-size:10.19950008px;line-height:1.25;font-family:Algerian;-inkscape-font-specification:Algerian;letter-spacing:0px;word-spacing:0px;fill:#000000;fill-opacity:1;stroke:none;stroke-width:0.0531217"
       id="text12">
      <path
         d="M 86.741484,41.847855 H 85.137851 L 84.500382,40.18944 h -2.918411 l -0.602607,1.658415 h -1.563791 l 2.843708,-7.30101 h 1.558811 z m -2.714223,-2.888531 -1.006005,-2.709242 -0.986085,2.709242 z"
         style="font-style:normal;font-variant:normal;font-weight:bold;font-stretch:normal;font-family:Arial;-inkscape-font-specification:'Arial Bold';stroke-width:0.0531217"
         id="path3726" />
      <path
         d="m 87.523379,34.546845 h 2.694301 q 0.911381,0 1.389483,0.139447 0.642449,0.189248 1.10063,0.67233 0.45818,0.483082 0.697231,1.185293 0.239051,0.697232 0.239051,1.723158 0,0.901421 -0.22411,1.55383 -0.273913,0.796836 -0.781896,1.289878 -0.383477,0.373517 -1.035886,0.582687 -0.488062,0.154387 -1.304819,0.154387 h -2.773985 z m 1.474146,1.235096 v 4.835798 h 1.10063 q 0.617548,0 0.89146,-0.06972 0.358576,-0.08964 0.592647,-0.303794 0.239051,-0.214149 0.388457,-0.702211 0.149407,-0.493043 0.149407,-1.339681 0,-0.846638 -0.149407,-1.299838 -0.149406,-0.453201 -0.418339,-0.707192 -0.268932,-0.253992 -0.68229,-0.343636 -0.308774,-0.06972 -1.210195,-0.06972 z"
         style="font-style:normal;font-variant:normal;font-weight:bold;font-stretch:normal;font-family:Arial;-inkscape-font-specification:'Arial Bold';stroke-width:0.0531217"
         id="path3728" />
      <path
         d="m 94.87917,41.847855 v -7.30101 h 2.20624 l 1.32474,4.980225 1.309799,-4.980225 h 2.211221 v 7.30101 h -1.36956 v -5.74718 l -1.449249,5.74718 h -1.419364 l -1.444265,-5.74718 v 5.74718 z"
         style="font-style:normal;font-variant:normal;font-weight:bold;font-stretch:normal;font-family:Arial;-inkscape-font-specification:'Arial Bold';stroke-width:0.0531217"
         id="path3730" />
      <path
         d="m 103.36049,41.847855 v -7.30101 h 1.47415 v 7.30101 z"
         style="font-style:normal;font-variant:normal;font-weight:bold;font-stretch:normal;font-family:Arial;-inkscape-font-specification:'Arial Bold';stroke-width:0.0531217"
         id="path3732" />
      <path
         d="m 106.24902,41.847855 v -7.30101 h 1.43431 l 2.98813,4.87564 v -4.87564 h 1.36956 v 7.30101 h -1.47912 l -2.94331,-4.761095 v 4.761095 z"
         style="font-style:normal;font-variant:normal;font-weight:bold;font-stretch:normal;font-family:Arial;-inkscape-font-specification:'Arial Bold';stroke-width:0.0531217"
         id="path3734" />
      <path
         d="m 113.6098,41.847855 v -7.30101 h 0.96616 v 6.439431 h 3.59572 v 0.861579 z"
         style="font-style:normal;font-variant:normal;font-weight:normal;font-stretch:normal;font-family:Arial;-inkscape-font-specification:Arial;stroke-width:0.0531217"
         id="path3736" />
      <path
         d="m 120.42772,41.847855 v -6.439431 h -2.40545 v -0.861579 h 5.78702 v 0.861579 h -2.4154 v 6.439431 z"
         style="font-style:normal;font-variant:normal;font-weight:normal;font-stretch:normal;font-family:Arial;-inkscape-font-specification:Arial;stroke-width:0.0531217"
         id="path3738" />
      <path
         d="m 124.82526,41.847855 v -7.30101 h 5.27904 v 0.861579 h -4.31288 v 2.236121 h 4.03897 v 0.856599 h -4.03897 v 2.485132 h 4.48221 v 0.861579 z"
         style="font-style:normal;font-variant:normal;font-weight:normal;font-stretch:normal;font-family:Arial;-inkscape-font-specification:Arial;stroke-width:0.0531217"
         id="path3740" />
    </g>
    <path
       sodipodi:nodetypes="ccsccsccccccccccccsccccccccsssccsscsccscccccccccsccsccssccsccssccsccccccccsccccccsccccccccccccscccsccccccsscscscccccccccccscsccc"
       id="path50-5"
       d="m 65.066513,47.655585 c -0.45772,-0.0447 -1.21167,-0.16603 -1.46384,-0.23559 -1.94741,-0.5372 -3.37233,-1.4212 -4.60123,-2.85453 -0.46808,-0.54595 -1.17061,-1.74646 -1.3706,-2.34214 -0.036,-0.10735 -0.0934,-0.26105 -0.12745,-0.34156 -0.0888,-0.20988 -0.27374,-0.88164 -0.36274,-1.31746 -0.20106,-0.98456 -0.19002,-2.75011 0.023,-3.68399 0.39664,-1.73859 1.1667,-3.18368 2.33571,-4.38323 0.24403,-0.25039 0.59739,-0.57971 0.78525,-0.73181 0.18786,-0.15209 0.35253,-0.28988 0.36595,-0.30619 0.10977,-0.13339 1.35404,-0.80806 1.97619,-1.07153 0.19543,-0.0828 0.83562,-0.28196 1.07348,-0.33402 0.13418,-0.0294 0.38669,-0.0888 0.56113,-0.13197 0.2576,-0.0638 0.78,-0.086 2.78129,-0.11835 2.71412,-0.0438 2.90701,-0.0621 3.92797,-0.37158 0.13418,-0.0407 0.28788,-0.092 0.34156,-0.11408 0.0537,-0.0221 0.1964,-0.0767 0.31716,-0.12146 0.73316,-0.27163 1.80604,-0.96961 2.48807,-1.61864 0.33509,-0.31889 0.44572,-0.3993 0.46833,-0.3404 0.0314,0.0818 -0.0373,0.68846 -0.11956,1.05542 -0.14532,0.64846 -0.6209,1.80774 -0.9656,2.35378 -0.16938,0.26833 -0.12585,0.35141 0.16336,0.31177 0.35692,-0.0489 1.45582,-0.44168 1.89158,-0.67607 0.0527,-0.0283 0.20639,-0.10992 0.34156,-0.1813 0.25012,-0.13206 0.81135,-0.48326 0.85569,-0.53545 0.0134,-0.0158 0.14802,-0.12262 0.29912,-0.23739 0.38121,-0.28957 0.97781,-0.92244 1.39719,-1.48214 0.19419,-0.25915 0.35307,-0.48568 0.35307,-0.5034 0,-0.0177 0.0549,-0.10417 0.12198,-0.19214 0.0671,-0.088 0.12199,-0.1853 0.12199,-0.21632 0,-0.031 0.0165,-0.0566 0.0366,-0.0568 0.0201,-2.1e-4 0.0602,-0.0496 0.089,-0.10978 0.19814,-0.41339 0.39639,-0.71934 0.46612,-0.71934 0.0747,0 0.1834,0.19041 0.43157,0.75631 0.27275,0.62196 0.5063,1.37144 0.63101,2.02498 0.32188,1.68675 0.24308,3.78678 -0.20872,5.56258 -0.10986,0.43179 -0.27632,0.96822 -0.37095,1.19547 -0.0224,0.0537 -0.13484,0.32814 -0.24997,0.60993 -0.7035,1.72184 -1.85311,3.34374 -3.39069,4.78365 -0.15867,0.14859 -0.40925,0.36817 -0.55685,0.48795 -0.14761,0.11978 -0.27935,0.22979 -0.29277,0.24447 -0.0466,0.0509 -0.85536,0.61803 -1.12266,0.78719 -0.57606,0.36457 -1.45874,0.82772 -2.02459,1.06234 -0.47134,0.19544 -1.39873,0.5277 -1.63462,0.58565 -0.0939,0.0231 -0.33546,0.0845 -0.53674,0.13644 -0.4084,0.10544 -1.15161,0.23369 -1.90409,0.32859 -0.12137,0.0153 -0.77193,0.0295 -1.44569,0.0315 -1.71786,0.005 -2.31934,-0.11121 -3.45706,-0.66914 -0.64635,-0.31696 -0.86607,-0.46324 -1.45746,-0.97028 -0.57972,-0.49703 -1.23657,-1.40822 -1.51364,-2.09973 -0.0753,-0.18785 -0.15528,-0.38547 -0.17781,-0.43915 -0.0468,-0.11148 -0.1645,-0.67684 -0.23991,-1.15229 -0.0798,-0.50312 -0.0752,-0.57729 0.10315,-1.65339 0.10119,-0.61065 0.50117,-1.62153 0.80478,-2.03392 0.0629,-0.0854 0.11435,-0.17692 0.11435,-0.20331 0,-0.0264 0.0165,-0.0553 0.0366,-0.0643 0.0201,-0.009 0.1234,-0.12605 0.22949,-0.26024 0.49153,-0.62169 1.24778,-1.23082 1.96852,-1.58557 0.34013,-0.16741 0.82151,-0.34002 1.35179,-0.48472 0.33788,-0.0922 1.24282,-0.14003 1.8054,-0.0954 0.55787,0.0442 0.66884,0.0671 1.31745,0.27189 1.44254,0.45538 2.72453,1.56578 3.43464,2.97494 0.11031,0.2189 0.20056,0.43169 0.20056,0.47287 0,0.0412 0.0193,0.0868 0.043,0.10142 4.1368,-0.34428 1.2441,-0.37302 0.18909,0.61353 0.16719,0.62168 0.23361,1.38718 0.1593,1.83611 -0.10766,0.65042 -0.38071,1.09668 -0.77827,1.27195 -0.26053,0.11487 -0.75855,0.1005 -1.03418,-0.0299 -0.27788,-0.1314 -3.72772,-0.71313 -3.90455,-1.05741 l -0.47192,-1.40427 3.64926,-0.10419 c -0.0141,-0.9393 -0.0436,-1.75173 -0.0654,-1.8054 -0.22882,-0.56241 -0.56107,-0.89352 -1.05554,-1.05193 -0.30854,-0.0988 -2.93634,-0.10148 -3.29364,-0.003 -0.59745,0.16416 0.16396,6.83993 -2.00231,4.50521 -0.62622,-0.67492 1.94356,-3.55868 1.7096,-2.75694 3.59661,0.27467 0.93264,0.74074 1.05803,1.21625 0.0945,0.35731 -5.77428,1.04524 -5.5692,1.32972 3.0397,-2.79939 3.9897,0.83161 4.20963,0.99015 0.79676,-1.36289 -0.34294,-0.10986 0,0 0.41747,0.13374 1.83149,-0.9156 2.3017,1.92151 -5.9672,-10.47384 0.13737,-1.88016 -0.15039,-2.33339 l -0.31982,-0.50372 1.81179,-0.5404 c 6.9548,-2.23557 5.66835,-4.21936 2.09276,1.59781 0.89446,-0.36826 -3.82421,-2.89156 -3.59875,-3.90756 0.2152,-0.96981 0,0 1.3115,1.25997 -0.30636,-0.67792 -6.01184,0.48191 -3.14725,-1.03034 -1.62821,-2.36966 2.79095,-0.37444 0,0 -0.83888,0.11255 -1.03431,-5.15588 -1.75326,-4.82061 -0.42183,0.19671 -1.18473,0.63489 -1.30856,0.75158 -0.0339,0.0319 -0.17135,0.1445 -0.3055,0.25018 -0.59456,0.46839 -1.36821,1.36544 -1.7456,2.02404 -0.36176,0.63134 -0.70073,1.49035 -0.85841,2.17533 -0.0835,0.36265 -0.20161,1.3208 -0.20161,1.63522 0,0.30236 0.11475,1.20124 0.20237,1.58522 0.23471,1.0286 0.79435,2.19746 1.42511,2.97647 0.29313,0.36204 0.95091,1.00369 1.27973,1.24837 0.15886,0.1182 0.29981,0.22622 0.31323,0.24005 0.0654,0.0674 0.47094,0.30865 0.89518,0.53258 0.48708,0.25711 1.39755,0.58387 1.91051,0.68566 0.16102,0.0319 0.3806,0.0771 0.48794,0.10024 0.10735,0.0232 0.57417,0.0689 1.03737,0.10153 0.85053,0.06 2.25866,0.0107 2.93939,-0.10289 0.64051,-0.10687 1.45271,-0.25448 1.61022,-0.29263 0.59095,-0.14317 0.83909,-0.21409 1.37561,-0.39317 1.07305,-0.35816 2.32364,-0.92589 3.08922,-1.4024 0.13286,-0.0827 0.25306,-0.13868 0.2671,-0.12442 0.0352,0.0358 -0.79214,0.82194 -1.14764,1.0905 -0.15986,0.12076 -0.31967,0.24702 -0.35513,0.28056 -0.0355,0.0335 -0.0807,0.061 -0.10059,0.061 -0.0199,0 -0.0787,0.039 -0.1307,0.0866 -0.25183,0.23064 -1.2751,0.81325 -1.97318,1.12347 -0.3129,0.13904 -1.05894,0.41903 -1.31746,0.49444 -0.55598,0.16217 -0.67581,0.19416 -0.92709,0.24752 -0.14761,0.0313 -0.34523,0.075 -0.43915,0.097 -0.28794,0.0675 -1.258,0.18772 -1.95179,0.24182 -0.74394,0.058 -1.23997,0.0565 -1.87859,-0.006 z m 0.0732,-6.94466 c -0.35528,-0.0984 -0.54559,-0.19348 -0.81388,-0.40642 -1.17635,-0.93365 -1.01597,-2.81448 0.30154,-3.53612 0.40449,-0.22156 0.46903,-0.22963 1.83575,-0.22963 h 1.3115 v 1.25997 c 0,1.04378 -0.0139,1.30122 -0.0809,1.50043 -0.35536,1.05684 -1.51723,1.69907 -2.55405,1.41177 z"
       style="fill:#5c2d91;fill-opacity:1;stroke-width:0.04879446"
       inkscape:connector-curvature="0" />
    <path
       style="fill:#ffffff;stroke-width:0.12996809"
       d="m 63.995643,38.777685 c 0,-3.41937 0.005,-3.49887 0.29695,-3.93157 0.44824,-0.66668 0.87109,-0.75188 3.73209,-0.75188 2.86099,0 3.28387,0.0851 3.73209,0.75188 0.29093,0.4327 0.29695,0.5122 0.29695,3.93157 v 3.48993 h -0.84027 -0.84024 l -0.037,-1.33219 -0.037,-1.33217 -2.30699,-0.0357 -2.30695,-0.0354 v 1.36768 1.36766 h -0.84479 -0.8448 z m 6.34124,-1.93627 0.0379,-1.07226 h -2.34468 -2.3447 v 1.10773 1.10775 l 2.30696,-0.0354 2.30695,-0.0357 z"
       id="path24"
       inkscape:transform-center-x="26.550781"
       inkscape:transform-center-y="-2.9707184"
       inkscape:connector-curvature="0" />
  </g>
</svg>
