<?xml version="1.0" encoding="UTF-8" standalone="no"?>
<svg
   xmlns:dc="http://purl.org/dc/elements/1.1/"
   xmlns:cc="http://creativecommons.org/ns#"
   xmlns:rdf="http://www.w3.org/1999/02/22-rdf-syntax-ns#"
   xmlns:svg="http://www.w3.org/2000/svg"
   xmlns="http://www.w3.org/2000/svg"
   xmlns:sodipodi="http://sodipodi.sourceforge.net/DTD/sodipodi-0.dtd"
   xmlns:inkscape="http://www.inkscape.org/namespaces/inkscape"
   sodipodi:docname="blazor-adminlte.svg"
   inkscape:version="1.0 (4035a4fb49, 2020-05-01)"
   id="svg8"
   version="1.1"
   viewBox="0 0 73.616249 21.655787"
   height="21.655787mm"
   width="73.616249mm">
  <defs
     id="defs2" />
  <sodipodi:namedview
     inkscape:window-maximized="1"
     inkscape:window-y="-8"
     inkscape:window-x="-8"
     inkscape:window-height="1017"
     inkscape:window-width="2560"
     showgrid="false"
     inkscape:document-rotation="0"
     inkscape:current-layer="layer1"
     inkscape:document-units="mm"
     inkscape:cy="320.46219"
     inkscape:cx="583.32712"
     inkscape:zoom="0.98994949"
     inkscape:pageshadow="2"
     inkscape:pageopacity="0.0"
     borderopacity="1.0"
     bordercolor="#666666"
     pagecolor="#ffffff"
     id="base" />
  <metadata
     id="metadata5">
    <rdf:RDF>
      <cc:Work
         rdf:about="">
        <dc:format>image/svg+xml</dc:format>
        <dc:type
           rdf:resource="http://purl.org/dc/dcmitype/StillImage" />
        <dc:title></dc:title>
      </cc:Work>
    </rdf:RDF>
  </metadata>
  <g
     transform="translate(-56.657377,-25.91088)"
     id="layer1"
     inkscape:groupmode="layer"
     inkscape:label="Layer 1">
    <text
       xml:space="preserve"
       style="font-style:normal;font-variant:normal;font-weight:normal;font-stretch:normal;font-size:10.1995px;line-height:1.25;font-family:Algerian;-inkscape-font-specification:Algerian;letter-spacing:0px;word-spacing:0px;fill:#000000;fill-opacity:1;stroke:none;stroke-width:0.0531217"
       x="79.415573"
       y="41.847855"
       id="text12"><tspan
         sodipodi:role="line"
         id="tspan10"
         x="79.415573"
         y="41.847855"
         style="font-style:normal;font-variant:normal;font-weight:bold;font-stretch:normal;font-family:Arial;-inkscape-font-specification:'Arial Bold';stroke-width:0.0531217">ADMIN<tspan
   style="font-style:normal;font-variant:normal;font-weight:normal;font-stretch:normal;font-family:Arial;-inkscape-font-specification:Arial;stroke-width:0.0531217"
   id="tspan16">LTE</tspan></tspan></text>
    <path
       sodipodi:nodetypes="ccscsccssssssssscsccsssscssscsscsscsccsscssccscsccsscssscsssssscscsscscccscssccsscscsccccccsscsscsssscscccsscscssscssccscccssscsccc"
       style="fill:#5c2d91;fill-opacity:1;stroke-width:0.0487945"
       d="m 64.727279,47.518551 c -0.45772,-0.0447 -1.21167,-0.16604 -1.46384,-0.2356 -1.94741,-0.5372 -3.37233,-1.4212 -4.60123,-2.85453 -0.46808,-0.54595 -1.17061,-1.74646 -1.3706,-2.34214 -0.036,-0.10735 -0.0934,-0.26105 -0.12746,-0.34156 -0.0888,-0.20988 -0.27374,-0.88164 -0.36273,-1.31745 -0.20106,-0.98457 -0.19002,-2.75012 0.023,-3.683994 0.39664,-1.738588 1.1667,-3.18368 2.33571,-4.38323 0.24403,-0.250396 0.59739,-0.579711 0.78524,-0.731809 0.18786,-0.152098 0.35254,-0.289883 0.36596,-0.30619 0.10977,-0.133392 1.35404,-0.808066 1.97618,-1.071533 0.19544,-0.08276 0.83562,-0.281965 1.07348,-0.334025 0.13419,-0.02937 0.3867,-0.08876 0.56114,-0.131969 0.25759,-0.06381 0.78,-0.08604 2.78129,-0.118346 2.71412,-0.04381 2.90701,-0.06206 3.92797,-0.371583 0.13418,-0.04068 0.28788,-0.09202 0.34156,-0.114079 0.0537,-0.02206 0.1964,-0.07672 0.31716,-0.121463 0.73316,-0.271625 1.80604,-0.969603 2.48807,-1.618639 0.33509,-0.318884 0.44572,-0.399296 0.46833,-0.340397 0.0314,0.08183 -0.0373,0.688458 -0.11956,1.055418 -0.14532,0.648458 -0.6209,1.807743 -0.9656,2.353786 -0.16938,0.268323 -0.12585,0.351406 0.16336,0.311766 0.35692,-0.04892 1.45582,-0.441678 1.89158,-0.676069 0.0527,-0.02834 0.20639,-0.109925 0.34156,-0.181296 0.25012,-0.132067 0.811345,-0.483261 0.855685,-0.535454 0.0134,-0.0158 0.14802,-0.122622 0.29912,-0.237393 0.38121,-0.289565 0.97781,-0.922436 1.39719,-1.482134 0.19419,-0.259155 0.35306,-0.485685 0.35306,-0.5034 0,-0.01772 0.0549,-0.104178 0.12199,-0.192141 0.0671,-0.08796 0.12199,-0.185307 0.12199,-0.21632 0,-0.03101 0.0165,-0.05656 0.0366,-0.05677 0.0201,-2.1e-4 0.0602,-0.04961 0.089,-0.109788 0.19814,-0.413389 0.39639,-0.719339 0.46612,-0.719339 0.0747,0 0.1834,0.190416 0.43157,0.756316 0.27275,0.62196 0.5063,1.371436 0.63101,2.024974 0.32188,1.686747 0.24308,3.786785 -0.20872,5.562582 -0.10986,0.431786 -0.27632,0.968223 -0.37096,1.195466 -0.0224,0.05367 -0.13483,0.328144 -0.24997,0.609933 -0.70349,1.721838 -1.85311,3.343748 -3.390675,4.783658 -0.15867,0.14858 -0.40925,0.36816 -0.55685,0.48794 -0.14761,0.11979 -0.27935,0.22979 -0.29277,0.24447 -0.0466,0.0509 -0.85536,0.61804 -1.12266,0.7872 -0.57606,0.36456 -1.45874,0.82772 -2.02459,1.06234 -0.47135,0.19543 -1.39873,0.52769 -1.63462,0.58564 -0.0939,0.0231 -0.33546,0.0845 -0.53674,0.13644 -0.40841,0.10544 -1.15161,0.2337 -1.90409,0.32859 -0.12137,0.0153 -0.77193,0.0295 -1.44569,0.0315 -1.71786,0.005 -2.31934,-0.11121 -3.45706,-0.66914 -0.64635,-0.31696 -0.86607,-0.46324 -1.45746,-0.97027 -0.57972,-0.49704 -1.23657,-1.40823 -1.51364,-2.09973 -0.0753,-0.18786 -0.15528,-0.38548 -0.17781,-0.43915 -0.0468,-0.11149 -0.1645,-0.67684 -0.23991,-1.1523 -0.0798,-0.50312 -0.0752,-0.57729 0.10315,-1.65339 0.10119,-0.61065 0.50117,-1.621522 0.80478,-2.033919 0.0629,-0.08543 0.11435,-0.176919 0.11435,-0.20331 0,-0.02639 0.0164,-0.0553 0.0366,-0.06425 0.0201,-0.0089 0.1234,-0.126053 0.22949,-0.260238 0.49154,-0.621692 1.24779,-1.230821 1.96853,-1.585566 0.34013,-0.167411 0.82151,-0.340025 1.35179,-0.484727 0.33788,-0.0922 1.24282,-0.140024 1.8054,-0.09541 0.55786,0.04424 0.66884,0.06714 1.31745,0.271894 1.44254,0.455374 2.72453,1.565777 3.43463,2.974936 0.11031,0.218902 0.20057,0.431693 0.20057,0.472867 0,0.04118 0.0193,0.08681 0.043,0.10142 0.0236,0.0146 0.0537,0.07628 0.0668,0.137065 0.0131,0.06078 0.0682,0.27519 0.12229,0.476468 0.16719,0.621678 0.23361,1.387178 0.1593,1.836108 -0.10766,0.65042 -0.38071,1.09668 -0.77827,1.27196 -0.26053,0.11487 -0.75855,0.10049 -1.03418,-0.0298 -0.27788,-0.13141 -0.38685,-0.24541 -0.56368,-0.5897 l -0.13783,-0.26837 -0.0257,-1.70781 c -0.0141,-0.939294 -0.0436,-1.751723 -0.0654,-1.805398 -0.22882,-0.562406 -0.56107,-0.893516 -1.05554,-1.051928 -0.30854,-0.09884 -2.93635,-0.101481 -3.29364,-0.0033 -0.59745,0.164166 -1.0989,0.389599 -1.40095,0.629806 -0.72061,0.573066 -1.19638,1.258309 -1.43034,2.060045 -0.12704,0.43536 -0.12839,1.39904 -0.003,1.87455 0.0945,0.35731 0.35483,0.91504 0.55991,1.19951 0.15854,0.21994 0.66343,0.72483 0.88337,0.88338 0.24302,0.17518 0.80373,0.44795 1.14667,0.55782 0.41747,0.13374 1.53209,0.13414 1.95178,7.9e-4 0.57565,-0.18301 1.28249,-0.60918 1.65369,-0.99703 l 0.14105,-0.14739 0.21502,0.23915 c 0.31548,0.35089 0.62478,0.55786 1.0643,0.71219 0.34714,0.12188 0.4552,0.13675 0.9759,0.13431 0.51036,-0.002 0.62385,-0.0185 0.88401,-0.12563 0.89446,-0.36827 1.56949,-1.20264 1.79495,-2.21863 0.2152,-0.96981 -0.0202,-2.872542 -0.48182,-3.893936 -0.30636,-0.677916 -0.45057,-0.943891 -0.74077,-1.366248 -1.62821,-2.369662 -4.35,-3.598529 -7.14095,-3.224089 -0.83888,0.112546 -1.39984,0.273799 -2.11879,0.609064 -0.42183,0.196711 -1.18473,0.634889 -1.30857,0.751584 -0.0339,0.03192 -0.17134,0.144503 -0.30549,0.250183 -0.59457,0.468381 -1.36821,1.365434 -1.7456,2.024038 -0.36176,0.631337 -0.70074,1.490352 -0.85841,2.17533 -0.0835,0.362644 -0.20161,1.320804 -0.20161,1.635224 0,0.30235 0.11475,1.20124 0.20237,1.58522 0.23471,1.02859 0.79435,2.19746 1.4251,2.97647 0.29314,0.36203 0.95092,1.00369 1.27974,1.24836 0.15886,0.1182 0.29981,0.22623 0.31323,0.24005 0.0654,0.0674 0.47094,0.30865 0.89518,0.53259 0.48708,0.25711 1.39755,0.58386 1.91051,0.68565 0.16102,0.0319 0.38059,0.0771 0.48794,0.10024 0.10735,0.0232 0.57417,0.0689 1.03737,0.10153 0.85053,0.06 2.25866,0.0107 2.93939,-0.10289 0.64051,-0.10687 1.45271,-0.25447 1.61022,-0.29263 0.59095,-0.14316 0.83908,-0.21408 1.37561,-0.39316 1.07305,-0.35817 2.32364,-0.9259 3.08922,-1.40241 0.13286,-0.0827 0.25306,-0.13868 0.2671,-0.12441 0.0352,0.0358 -0.79214,0.82193 -1.14764,1.09049 -0.15986,0.12076 -0.31967,0.24702 -0.35513,0.28057 -0.0355,0.0336 -0.0807,0.061 -0.10059,0.061 -0.0199,0 -0.0787,0.039 -0.1307,0.0866 -0.25183,0.23063 -1.2751,0.81324 -1.97318,1.12346 -0.3129,0.13904 -1.05894,0.41903 -1.31746,0.49444 -0.55598,0.16217 -0.67581,0.19416 -0.92709,0.24752 -0.14761,0.0313 -0.34523,0.075 -0.43915,0.097 -0.28794,0.0675 -1.258,0.18773 -1.95179,0.24182 -0.74394,0.058 -1.23997,0.0564 -1.87859,-0.006 z m 0.0732,-6.94466 c -0.35528,-0.0984 -0.54559,-0.19348 -0.81388,-0.40642 -1.17635,-0.93366 -1.01597,-2.81449 0.30154,-3.536129 0.40448,-0.221553 0.46903,-0.229627 1.83575,-0.229627 h 1.3115 v 1.259966 c 0,1.04378 -0.0139,1.30123 -0.0809,1.50043 -0.35536,1.05684 -1.51723,1.69907 -2.55405,1.41178 z"
       id="path50" />
  </g>
</svg>
